<?xml version="1.0" encoding="UTF-8" standalone="no"?>
<!-- Created with Inkscape (http://www.inkscape.org/) -->

<svg
   version="1.1"
   id="svg2"
   width="182.01898"
   height="24.161726"
   viewBox="0 0 182.01898 24.161726"
   sodipodi:docname="ArrangeMeLogo.svg"
   inkscape:version="1.2.1 (9c6d41e410, 2022-07-14)"
   xmlns:inkscape="http://www.inkscape.org/namespaces/inkscape"
   xmlns:sodipodi="http://sodipodi.sourceforge.net/DTD/sodipodi-0.dtd"
   xmlns="http://www.w3.org/2000/svg"
   xmlns:svg="http://www.w3.org/2000/svg">
  <defs
     id="defs6" />
  <sodipodi:namedview
     id="namedview4"
     pagecolor="#ffffff"
     bordercolor="#000000"
     borderopacity="0.25"
     inkscape:showpageshadow="2"
     inkscape:pageopacity="0.0"
     inkscape:pagecheckerboard="0"
     inkscape:deskcolor="#d1d1d1"
     showgrid="false"
     inkscape:zoom="4.3125"
     inkscape:cx="90.666667"
     inkscape:cy="100.86957"
     inkscape:window-width="1585"
     inkscape:window-height="1040"
     inkscape:window-x="2726"
     inkscape:window-y="68"
     inkscape:window-maximized="0"
     inkscape:current-layer="g12" />
  <g
     id="g10"
     inkscape:groupmode="layer"
     inkscape:label="Page 1"
     transform="matrix(1.3333333,0,0,-1.3333333,-98.845965,163.55731)">
    <g
       id="g12"
       transform="scale(0.1)">
      <g
         aria-label="ARRANGE·ME"
         transform="matrix(1.523458,0,0,-1.5212486,-713.56449,-356.71725)"
         id="text619"
         style="font-size:160px;line-height:0px;font-family:Italiana;-inkscape-font-specification:Italiana;white-space:pre;inline-size:1119.97;fill:#81bb33;stroke-width:150">
        <path
           id="path3288"
           style="fill:#003c3c"
           sodipodi:type="inkscape:offset"
           inkscape:radius="2.8399909"
           inkscape:original="M 1007.4395 -1038.0137 L 1005.6797 -1037.2148 L 957.84375 -925.21875 L 959.76758 -925.21875 L 974.95898 -960.41211 L 1021.6797 -960.41211 L 1034.1602 -925.21875 L 1047.7656 -925.21875 L 1007.4395 -1038.0137 z M 1297.6855 -1038.0137 L 1295.9258 -1037.2148 L 1248.082 -925.21875 L 1250.0039 -925.21875 L 1265.2051 -960.41211 L 1311.9258 -960.41211 L 1324.4062 -925.21875 L 1338.0039 -925.21875 L 1297.6855 -1038.0137 z M 1499.9238 -1037.3789 C 1484.9904 -1037.3789 1472.2436 -1033.4859 1461.6836 -1025.6992 C 1456.2436 -1021.5392 1451.9227 -1015.6136 1448.7227 -1007.9336 C 1445.6294 -1000.3603 1444.0781 -991.77382 1444.0781 -982.17383 C 1444.0781 -972.57384 1445.148 -964.41726 1447.2812 -957.69727 C 1449.4146 -950.97728 1452.1941 -945.59239 1455.6074 -941.53906 C 1465.2074 -930.2324 1479.9771 -924.57227 1499.9238 -924.57227 C 1511.3371 -924.57227 1521.0965 -926.01649 1529.2031 -928.89648 L 1529.2031 -960.41211 L 1536.0859 -960.41211 L 1536.0859 -962.02148 L 1496.5586 -962.02148 L 1496.5586 -960.41211 L 1515.9238 -960.41211 L 1515.9238 -927.46094 C 1509.7372 -926.60761 1504.7725 -926.18164 1501.0391 -926.18164 C 1497.4125 -926.18164 1494.274 -926.33235 1491.6074 -926.65234 C 1488.9407 -926.97234 1485.3667 -928.15106 1480.8867 -930.17773 C 1476.4067 -932.31106 1472.5672 -935.14017 1469.3672 -938.66016 C 1466.2738 -942.18016 1463.4924 -947.56504 1461.0391 -954.81836 C 1458.5857 -962.17836 1457.3672 -970.17446 1457.3672 -978.81445 C 1457.3672 -987.45444 1458.0568 -994.76686 1459.4434 -1000.7402 C 1461.7901 -1011.3001 1465.8474 -1019.2963 1471.6074 -1024.7363 C 1479.1808 -1032.0963 1488.6171 -1035.7813 1499.9238 -1035.7812 C 1509.7371 -1035.7812 1518.805 -1034.337 1527.125 -1031.457 L 1527.6055 -1033.0547 L 1524.2402 -1034.1816 C 1522.0002 -1034.9283 1518.5867 -1035.6217 1514 -1036.2617 C 1509.4133 -1037.0084 1504.7238 -1037.3789 1499.9238 -1037.3789 z M 1094.959 -1037.2148 C 1085.4657 -1037.2148 1074.5335 -1036.7888 1062.1602 -1035.9355 L 1062.1602 -925.21875 L 1075.4395 -925.21875 L 1075.4395 -978.17773 L 1096.084 -978.17773 L 1127.4395 -925.21875 L 1142.3223 -925.21875 L 1110.3242 -979.14062 C 1119.1775 -981.06062 1125.4183 -984.95561 1129.0449 -990.82227 C 1132.6716 -996.68893 1134.4863 -1003.3557 1134.4863 -1010.8223 C 1134.4863 -1028.4223 1121.3057 -1037.2148 1094.959 -1037.2148 z M 1191.1211 -1037.2148 C 1181.6278 -1037.2148 1170.6956 -1036.7888 1158.3223 -1035.9355 L 1158.3223 -925.21875 L 1171.6016 -925.21875 L 1171.6016 -978.17773 L 1192.2461 -978.17773 L 1223.6016 -925.21875 L 1238.4844 -925.21875 L 1206.4863 -979.14062 C 1215.3396 -981.06062 1221.5803 -984.95561 1225.207 -990.82227 C 1228.8337 -996.68893 1230.6387 -1003.3557 1230.6387 -1010.8223 C 1230.6387 -1028.4223 1217.4678 -1037.2148 1191.1211 -1037.2148 z M 1351.5996 -1037.2148 L 1351.5996 -925.21875 L 1353.6855 -925.21875 L 1353.6855 -1018.0156 L 1414.002 -925.21875 L 1425.6855 -925.21875 L 1425.6855 -1037.2148 L 1423.5977 -1037.2148 L 1423.5977 -933.70117 L 1357.041 -1037.2148 L 1351.5996 -1037.2148 z M 1551.125 -1037.2148 L 1551.125 -925.21875 L 1618.3262 -925.21875 L 1618.3262 -926.81641 L 1564.4043 -926.81641 L 1564.4043 -986.01758 L 1611.125 -986.01758 L 1611.125 -987.61523 L 1564.4043 -987.61523 L 1564.4043 -1035.6172 L 1614.8066 -1035.6172 L 1614.8066 -1037.2148 L 1551.125 -1037.2148 z M 1667.123 -1037.2148 L 1653.2012 -925.21875 L 1655.2871 -925.21875 L 1665.998 -1013.7012 L 1695.2871 -925.21875 L 1705.3633 -925.21875 L 1734.3242 -1014.8184 L 1745.3633 -925.21875 L 1758.6406 -925.21875 L 1744.7188 -1037.2148 L 1739.4395 -1037.2148 L 1705.998 -933.70117 L 1672.4023 -1037.2148 L 1667.123 -1037.2148 z M 1781.0449 -1037.2148 L 1781.0449 -925.21875 L 1848.2461 -925.21875 L 1848.2461 -926.81641 L 1794.3242 -926.81641 L 1794.3242 -986.01758 L 1841.0449 -986.01758 L 1841.0449 -987.61523 L 1794.3242 -987.61523 L 1794.3242 -1035.6172 L 1844.7266 -1035.6172 L 1844.7266 -1037.2148 L 1781.0449 -1037.2148 z M 1094.959 -1035.6172 C 1103.8124 -1035.6172 1110.4868 -1033.4319 1114.9668 -1029.0586 C 1119.4468 -1024.7919 1121.6797 -1018.6007 1121.6797 -1010.4941 C 1121.6797 -990.65412 1114.161 -980.41734 1099.1211 -979.77734 L 1075.4395 -979.77734 L 1075.4395 -1034.5 C 1082.2661 -1035.2467 1088.7724 -1035.6172 1094.959 -1035.6172 z M 1191.1211 -1035.6172 C 1199.9744 -1035.6172 1206.6392 -1033.4319 1211.1191 -1029.0586 C 1215.5991 -1024.7919 1217.8418 -1018.6007 1217.8418 -1010.4941 C 1217.8418 -990.65412 1210.3232 -980.41734 1195.2832 -979.77734 L 1171.6016 -979.77734 L 1171.6016 -1034.5 C 1178.4283 -1035.2467 1184.9345 -1035.6172 1191.1211 -1035.6172 z M 1000.7188 -1019.9414 L 1021.1992 -962.02148 L 975.60352 -962.02148 L 1000.7188 -1019.9414 z M 1290.9648 -1019.9414 L 1311.4453 -962.02148 L 1265.8398 -962.02148 L 1290.9648 -1019.9414 z M 1633.3652 -994.01953 C 1631.9785 -994.01953 1630.8057 -993.53422 1629.8457 -992.57422 C 1628.8857 -991.61422 1628.4023 -990.38982 1628.4023 -988.89648 C 1628.4023 -987.50982 1628.8857 -986.28347 1629.8457 -985.2168 C 1630.9124 -984.2568 1632.131 -983.77344 1633.5176 -983.77344 C 1634.9043 -983.77344 1636.0869 -984.2568 1637.0469 -985.2168 C 1638.1136 -986.28347 1638.6426 -987.50982 1638.6426 -988.89648 C 1638.6426 -990.28315 1638.1136 -991.45992 1637.0469 -992.41992 C 1636.0869 -993.48658 1634.8585 -994.01953 1633.3652 -994.01953 z "
           d="m 1008.5469,-1040.6289 a 2.8402749,2.8402749 0 0 0 -2.2813,0.029 l -1.7597,0.7988 a 2.8402749,2.8402749 0 0 0 -1.4375,1.4707 l -47.83598,111.99612 a 2.8402749,2.8402749 0 0 0 2.61133,3.95507 h 1.92383 a 2.8402749,2.8402749 0 0 0 2.60742,-1.71484 l 14.45117,-33.47852 h 42.84763 l 11.8106,33.30274 a 2.8402749,2.8402749 0 0 0 2.6758,1.89062 h 13.6054 a 2.8402749,2.8402749 0 0 0 2.6739,-3.79687 l -40.3262,-112.79492 a 2.8402749,2.8402749 0 0 0 -1.5664,-1.6582 z m 290.2461,0 a 2.8402749,2.8402749 0 0 0 -2.2813,0.029 l -1.7597,0.7988 a 2.8402749,2.8402749 0 0 0 -1.4375,1.4707 l -47.8438,111.99612 a 2.8402749,2.8402749 0 0 0 2.6113,3.95507 h 1.9219 a 2.8402749,2.8402749 0 0 0 2.6074,-1.71289 l 14.461,-33.48047 h 42.8476 l 11.8106,33.30274 a 2.8402749,2.8402749 0 0 0 2.6757,1.89062 h 13.5977 a 2.8402749,2.8402749 0 0 0 2.6738,-3.79492 l -40.3183,-112.79497 a 2.8402749,2.8402749 0 0 0 -1.5664,-1.6601 z m 201.1308,0.4101 c -15.4269,0 -28.851,4.0682 -39.9258,12.2344 a 2.8402749,2.8402749 0 0 0 -0.039,0.029 c -5.8973,4.5097 -10.5078,10.8906 -13.8574,18.9297 a 2.8402749,2.8402749 0 0 0 -0.01,0.018 c -3.2518,7.9612 -4.8555,16.92803 -4.8555,26.83397 0,9.811 1.0851,18.2453 3.3359,25.33594 2.2163,6.98101 5.1391,12.70867 8.8613,17.12891 a 2.8402749,2.8402749 0 0 0 0.01,0.008 c 10.2275,12.04573 25.9965,17.96875 46.4804,17.96875 11.6529,0 21.7286,-1.46785 30.2305,-4.48828 a 2.8402749,2.8402749 0 0 0 1.8887,-2.67578 v -28.67579 h 4.0429 a 2.8402749,2.8402749 0 0 0 2.8399,-2.83984 v -1.60937 a 2.8402749,2.8402749 0 0 0 -2.8399,-2.83985 h -39.5273 a 2.8402749,2.8402749 0 0 0 -2.8398,2.83985 v 1.60937 a 2.8402749,2.8402749 0 0 0 2.8398,2.83984 h 16.5254 v 27.50977 c -4.7255,0.57916 -9.1223,1.04102 -12.0449,1.04102 -3.548,0 -6.5842,-0.15003 -9.0938,-0.45118 -2.1391,-0.25668 -5.5324,-1.32734 -9.8535,-3.27929 -4.1529,-1.98008 -7.6623,-4.57054 -10.6035,-7.80078 -2.6969,-3.07467 -5.3792,-8.14081 -7.7559,-15.16407 l -0,-0.006 c -8e-4,-0.002 -0,-0.004 -0,-0.006 -2.3449,-7.03907 -3.5215,-14.71749 -3.5215,-23.08593 0,-8.48888 0.6839,-15.60513 2.002,-21.28325 a 2.8402749,2.8402749 0 0 0 0.01,-0.027 c 2.2622,-10.1796 6.1078,-17.6036 11.3418,-22.5469 a 2.8402749,2.8402749 0 0 0 0.029,-0.027 c 7.0677,-6.8685 15.6483,-10.2423 26.3379,-10.2422 9.5347,0 18.277,1.4006 26.2715,4.168 a 2.8402749,2.8402749 0 0 0 3.6485,-1.8653 l 0.4804,-1.5976 a 2.8402749,2.8402749 0 0 0 -1.8164,-3.5117 l -3.3652,-1.127 a 2.8402749,2.8402749 0 0 0 -0,0 c -2.5553,-0.8518 -6.0641,-1.5444 -10.7227,-2.1953 -4.7297,-0.7677 -9.5602,-1.1485 -14.4922,-1.1485 z m -404.9648,0.1641 c -9.5783,0 -20.571,0.4284 -32.9942,1.2852 a 2.8402749,2.8402749 0 0 0 -2.6445,2.834 v 110.71675 a 2.8402749,2.8402749 0 0 0 2.8399,2.83984 h 13.2793 a 2.8402749,2.8402749 0 0 0 2.8398,-2.83984 v -50.11914 h 16.1855 l 30.5313,51.56641 a 2.8402749,2.8402749 0 0 0 2.4434,1.39257 h 14.8828 a 2.8402749,2.8402749 0 0 0 2.4414,-4.28906 l -30.1407,-50.79297 c 7.4829,-2.29516 13.3161,-6.17005 16.8379,-11.86718 3.9099,-6.32478 5.8653,-13.56738 5.8653,-21.49418 0,-9.5089 -3.8308,-17.2746 -11.1465,-22.1582 -7.3157,-4.8835 -17.7314,-7.0742 -31.2207,-7.0742 z m 96.1621,0 c -9.5783,0 -20.571,0.4284 -32.9941,1.2852 a 2.8402749,2.8402749 0 0 0 -2.6446,2.834 v 110.71675 a 2.8402749,2.8402749 0 0 0 2.8399,2.83984 h 13.2793 a 2.8402749,2.8402749 0 0 0 2.8398,-2.83984 v -50.11914 h 16.1856 l 30.5312,51.56641 a 2.8402749,2.8402749 0 0 0 2.4434,1.39257 h 14.8828 a 2.8402749,2.8402749 0 0 0 2.4414,-4.28906 l -30.1406,-50.79297 c 7.4828,-2.29517 13.316,-6.1701 16.8378,-11.86718 3.9111,-6.32671 5.8555,-13.56988 5.8555,-21.49418 0,-9.5084 -3.8272,-17.2743 -11.1406,-22.1582 -7.3134,-4.8838 -17.7275,-7.0742 -31.2168,-7.0742 z m 160.4785,0 a 2.8402749,2.8402749 0 0 0 -2.8398,2.8399 v 111.99605 a 2.8402749,2.8402749 0 0 0 2.8398,2.83984 h 2.0859 a 2.8402749,2.8402749 0 0 0 2.8399,-2.83984 v -83.21875 l 55.0957,84.76562 a 2.8402749,2.8402749 0 0 0 2.3809,1.29297 h 11.6835 a 2.8402749,2.8402749 0 0 0 2.8399,-2.83984 v -111.99605 a 2.8402749,2.8402749 0 0 0 -2.8399,-2.8399 h -2.0878 a 2.8402749,2.8402749 0 0 0 -2.8399,2.8399 v 93.84761 l -61.3281,-95.38281 a 2.8402749,2.8402749 0 0 0 -2.3887,-1.3047 z m 199.5254,0 a 2.8402749,2.8402749 0 0 0 -2.8398,2.8399 v 111.99605 a 2.8402749,2.8402749 0 0 0 2.8398,2.83984 h 67.2012 a 2.8402749,2.8402749 0 0 0 2.8398,-2.83984 v -1.59766 a 2.8402749,2.8402749 0 0 0 -2.8398,-2.83984 h -51.0821 v -53.52148 h 43.8809 a 2.8402749,2.8402749 0 0 0 2.8398,-2.83985 v -1.59765 a 2.8402749,2.8402749 0 0 0 -2.8398,-2.83985 h -43.8809 v -42.32222 h 47.5625 a 2.8402749,2.8402749 0 0 0 2.8399,-2.8399 v -1.5976 a 2.8402749,2.8402749 0 0 0 -2.8399,-2.8399 z m 115.998,0 a 2.8402749,2.8402749 0 0 0 -2.8183,2.4902 l -13.9219,111.99614 a 2.8402749,2.8402749 0 0 0 2.8184,3.18945 h 2.0859 a 2.8402749,2.8402749 0 0 0 2.8203,-2.49804 l 9.1856,-75.87895 25.2988,76.42973 a 2.8402749,2.8402749 0 0 0 2.6953,1.94726 h 10.0762 a 2.8402749,2.8402749 0 0 0 2.7031,-1.96679 l 25.0098,-77.377 9.4687,76.85161 a 2.8402749,2.8402749 0 0 0 2.8184,2.49218 h 13.2773 a 2.8402749,2.8402749 0 0 0 2.8184,-3.18945 l -13.9219,-111.99614 a 2.8402749,2.8402749 0 0 0 -2.8183,-2.4902 h -5.2793 a 2.8402749,2.8402749 0 0 0 -2.7032,1.9668 l -30.7441,95.16602 -30.8887,-95.16992 a 2.8402749,2.8402749 0 0 0 -2.7012,-1.9629 z m 113.9219,0 a 2.8402749,2.8402749 0 0 0 -2.8398,2.8399 v 111.99605 a 2.8402749,2.8402749 0 0 0 2.8398,2.83984 h 67.2012 a 2.8402749,2.8402749 0 0 0 2.8398,-2.83984 v -1.59766 a 2.8402749,2.8402749 0 0 0 -2.8398,-2.83984 h -51.082 v -53.52148 h 43.8808 a 2.8402749,2.8402749 0 0 0 2.8399,-2.83985 v -1.59765 a 2.8402749,2.8402749 0 0 0 -2.8399,-2.83985 h -43.8808 v -42.32222 h 47.5625 a 2.8402749,2.8402749 0 0 0 2.8398,-2.8399 v -1.5976 a 2.8402749,2.8402749 0 0 0 -2.8398,-2.8399 z m -686.0859,7.2774 c 8.3861,0 14.214,2.0312 18.0234,5.75 a 2.8402749,2.8402749 0 0 0 0.025,0.025 c 3.8277,3.6455 5.832,8.9228 5.832,16.5079 0,9.5612 -1.8462,16.46309 -5.0878,20.87691 -3.239,4.4102 -7.8483,6.70345 -14.7364,7 h -20.7363 v -49.27341 c 5.7949,-0.5586 11.3866,-0.8867 16.6797,-0.8867 z m 96.1621,0 c 8.386,0 14.2029,2.0298 18.0137,5.75 a 2.8402749,2.8402749 0 0 0 0.025,0.025 c 3.8292,3.647 5.8418,8.9251 5.8418,16.5079 0,9.5612 -1.8463,16.46309 -5.0879,20.87691 -3.239,4.4102 -7.8483,6.70345 -14.7364,7 h -20.7363 v -49.27341 c 5.7949,-0.5586 11.3866,-0.8867 16.6797,-0.8867 z m -190.6719,20.5937 16.7324,47.32227 h -37.25191 z m 290.2461,0 16.7324,47.32227 h -37.2597 z m 342.6699,15.32422 c -2.0493,0 -4.0879,0.83797 -5.5273,2.27735 -1.4767,1.47669 -2.2754,3.57933 -2.2754,5.68555 0,2.04668 0.8049,4.06125 2.1719,5.58007 a 2.8402749,2.8402749 0 0 0 0.2109,0.21094 c 1.5138,1.36236 3.5257,2.17188 5.5723,2.17188 2.0466,0 4.0895,-0.82783 5.5371,-2.27539 1.5043,-1.5043 2.4277,-3.57855 2.4277,-5.6875 0,-2.05725 -0.9344,-4.0925 -2.4433,-5.50977 -1.4499,-1.54512 -3.5542,-2.45312 -5.6739,-2.45313 z" />
      </g>
    </g>
  </g>
</svg>
